<?xml version="1.0" encoding="UTF-8" standalone="no"?>
<!DOCTYPE svg PUBLIC "-//W3C//DTD SVG 1.1//EN" "http://www.w3.org/Graphics/SVG/1.1/DTD/svg11.dtd">
<!-- Generated by Microsoft Visio, SVG Export 404.svg 404 -->
<svg xmlns="http://www.w3.org/2000/svg" xmlns:xlink="http://www.w3.org/1999/xlink" xmlns:ev="http://www.w3.org/2001/xml-events"
		xmlns:v="http://schemas.microsoft.com/visio/2003/SVGExtensions/" width="2.92955in" height="2.92955in"
		viewBox="0 0 210.927 210.927" xml:space="preserve" color-interpolation-filters="sRGB" class="st8">
	<v:documentProperties v:langID="18441" v:metric="true" v:viewMarkup="false">
		<v:userDefs>
			<v:ud v:nameU="msvNoAutoConnect" v:val="VT0(1):26"/>
		</v:userDefs>
	</v:documentProperties>

	<style type="text/css">
	<![CDATA[
		.st1 {fill:url(#grad0-6);stroke:#262626;stroke-linecap:round;stroke-linejoin:round;stroke-width:4.5}
		.st2 {fill:none;stroke:#262626;stroke-linecap:round;stroke-linejoin:round;stroke-width:4.5}
		.st3 {fill:#262626;stroke:#262626;stroke-linecap:round;stroke-linejoin:round;stroke-width:2.25}
		.st4 {fill:#d8d8d8;stroke:#262626;stroke-linecap:round;stroke-linejoin:round;stroke-width:3}
		.st5 {fill:#262626;stroke:#262626;stroke-linecap:round;stroke-linejoin:round;stroke-width:0.75}
		.st6 {fill:url(#grad0-21);stroke:#262626;stroke-linecap:round;stroke-linejoin:round;stroke-width:0.75}
		.st7 {fill:#c00000;stroke:none;stroke-linecap:round;stroke-linejoin:round;stroke-width:0.75}
		.st8 {fill:none;fill-rule:evenodd;font-size:12px;overflow:visible;stroke-linecap:square;stroke-miterlimit:3}
	]]>
	</style>

	<defs id="Patterns_And_Gradients">
		<linearGradient id="grad0-6" x1="0" y1="0" x2="1" y2="0" gradientTransform="rotate(90 0.5 0.5)">
			<stop offset="0" stop-color="#f2f2f2" stop-opacity="1"/>
			<stop offset="1" stop-color="#bfbfbf" stop-opacity="1"/>
		</linearGradient>
		<linearGradient id="grad0-21" x1="0" y1="0" x2="1" y2="0" gradientTransform="rotate(90 0.5 0.5)">
			<stop offset="0" stop-color="#f2f2f2" stop-opacity="1"/>
			<stop offset="1" stop-color="#d8d8d8" stop-opacity="1"/>
		</linearGradient>
	</defs>
	<g v:mID="4" v:index="2" v:groupContext="foregroundPage">
		<title>404</title>
		<v:pageProperties v:drawingScale="0.0393701" v:pageScale="0.0393701" v:drawingUnits="24" v:shadowOffsetX="9"
				v:shadowOffsetY="-9"/>
		<g id="group20-1" transform="translate(20.25,-20.25)" v:mID="20" v:groupContext="group">
			<title>Sheet.20</title>
			<g id="group21-2" v:mID="21" v:groupContext="group">
				<title>Sheet.21</title>
				<g id="shape22-3" v:mID="22" v:groupContext="shape" transform="translate(8.04534E-05,-8.77673E-05)">
					<title>Sheet.22</title>
					<ellipse cx="85.2136" cy="125.714" rx="85.2136" ry="85.2136" class="st1"/>
				</g>
				<g id="shape23-7" v:mID="23" v:groupContext="shape" transform="translate(210.927,85.9473) rotate(90)">
					<title>Sheet.23</title>
					<ellipse cx="39.7663" cy="125.714" rx="39.7663" ry="85.2136" class="st2"/>
				</g>
				<g id="shape24-9" v:mID="24" v:groupContext="shape" transform="translate(45.4472,8.52651E-13)">
					<title>Sheet.24</title>
					<ellipse cx="39.7663" cy="125.714" rx="39.7663" ry="85.2136" class="st2"/>
				</g>
			</g>
			<g id="group25-11" transform="translate(10.7623,-27.3789)" v:mID="25" v:groupContext="group">
				<title>Sheet.25</title>
				<g id="shape26-12" v:mID="26" v:groupContext="shape" transform="translate(3.19744E-14,-33.7669)">
					<title>Sheet.26</title>
					<path d="M34.13 140.73 L36.08 129.02 L47.78 129.02 L49.73 140.73 L57.53 144.93 A38.4328 38.4328 -180 0 0 67.76
								 138.29 L75.56 146.09 L68.56 155.96 L70.2 163.15 A78.3532 78.3532 -180 0 0 81.9 165.1 L81.9 176.8
								 L70.2 178.75 L67.28 185.58 L75.08 195.33 L66.3 204.1 A57.6001 57.6001 -180 0 0 56.25 196.61 L49.73
								 199.23 L47.78 210.93 L36.08 210.93 L34.13 199.23 L24.99 195.63 L15.6 202.46 L7.8 194.66 L13.96 184.6
								 L11.7 178.75 L0 176.8 L0 165.1 L11.7 163.15 L13.96 155.35 L6.83 146.27 L15.6 137.49 L24.99 144.32
								 L34.13 140.73 Z" class="st3"/>
				</g>
				<g id="shape27-14" v:mID="27" v:groupContext="shape" transform="translate(1.95006,-31.8168)">
					<title>Sheet.27</title>
					<path d="M34.13 140.73 L36.08 129.02 L47.78 129.02 L49.73 140.73 L57.53 144.93 A38.4328 38.4328 -180 0 0 67.76
								 138.29 L75.56 146.09 L68.56 155.96 L70.2 163.15 A78.3532 78.3532 -180 0 0 81.9 165.1 L81.9 176.8
								 L70.2 178.75 L67.28 185.58 L75.08 195.33 L66.3 204.1 A57.6001 57.6001 -180 0 0 56.25 196.61 L49.73
								 199.23 L47.78 210.93 L36.08 210.93 L34.13 199.23 L24.99 195.63 L15.6 202.46 L7.8 194.66 L13.96 184.6
								 L11.7 178.75 L0 176.8 L0 165.1 L11.7 163.15 L13.96 155.35 L6.83 146.27 L15.6 137.49 L24.99 144.32
								 L34.13 140.73 Z" class="st4"/>
				</g>
				<g id="shape28-16" v:mID="28" v:groupContext="shape" transform="translate(29.2509,-61.0677)">
					<title>Sheet.28</title>
					<path d="M9.1 183.63 L18.2 183.63 A143.568 143.568 -180 0 0 27.3 192.73 L27.3 201.83 L18.2 210.93 L9.1 210.93
								 L0 201.83 L0 192.73 L9.1 183.63 Z" class="st5"/>
				</g>
				<g id="shape29-18" v:mID="29" v:groupContext="shape" transform="translate(31.201,-61.0677)">
					<title>Sheet.29</title>
					<path d="M9.1 183.63 L18.2 183.63 A143.568 143.568 -180 0 0 27.3 192.73 L27.3 201.83 L18.2 210.93 L9.1 210.93
								 L0 201.83 L0 192.73 L9.1 183.63 Z" class="st6"/>
				</g>
				<g id="shape30-22" v:mID="30" v:groupContext="shape" transform="translate(42.5647,7.44439) rotate(-10)">
					<title>Sheet.30</title>
					<path d="M30.9 147.36 L32.66 136.77 L43.26 136.77 L45.02 147.36 L52.09 151.17 A34.7985 34.7985 -180 0 0 61.36
								 145.16 L68.42 152.22 L62.08 161.16 L63.56 167.67 A70.944 70.944 -180 0 0 74.16 169.43 L74.16 180.03
								 L63.56 181.79 L60.92 187.97 L67.98 196.8 L60.03 204.75 A52.1533 52.1533 -180 0 0 50.93 197.96 L45.02
								 200.33 L43.26 210.93 L32.66 210.93 L30.9 200.33 L22.62 197.08 L14.13 203.26 L7.06 196.2 L12.64 187.09
								 L10.59 181.79 L0 180.03 L0 169.43 L10.59 167.67 L12.64 160.61 L6.18 152.38 L14.13 144.44 L22.62
								 150.62 L30.9 147.36 Z" class="st3"/>
				</g>
				<g id="shape31-24" v:mID="31" v:groupContext="shape" transform="translate(44.6101,8.87662) rotate(-10)">
					<title>Sheet.31</title>
					<path d="M30.9 147.36 L32.66 136.77 L43.26 136.77 L45.02 147.36 L52.09 151.17 A34.7985 34.7985 -180 0 0 61.36
								 145.16 L68.42 152.22 L62.08 161.16 L63.56 167.67 A70.944 70.944 -180 0 0 74.16 169.43 L74.16 180.03
								 L63.56 181.79 L60.92 187.97 L67.98 196.8 L60.03 204.75 A52.1533 52.1533 -180 0 0 50.93 197.96 L45.02
								 200.33 L43.26 210.93 L32.66 210.93 L30.9 200.33 L22.62 197.08 L14.13 203.26 L7.06 196.2 L12.64 187.09
								 L10.59 181.79 L0 180.03 L0 169.43 L10.59 167.67 L12.64 160.61 L6.18 152.38 L14.13 144.44 L22.62
								 150.62 L30.9 147.36 Z" class="st4"/>
				</g>
				<g id="shape32-26" v:mID="32" v:groupContext="shape" transform="translate(64.3548,-21.4983) rotate(-10)">
					<title>Sheet.32</title>
					<path d="M8.24 186.21 L16.48 186.21 A129.992 129.992 -180 0 0 24.72 194.45 L24.72 202.69 L16.48 210.93 L8.24
								 210.93 L0 202.69 L0 194.45 L8.24 186.21 Z" class="st5"/>
				</g>
				<g id="shape33-28" v:mID="33" v:groupContext="shape" transform="translate(66.0936,-21.8049) rotate(-10)">
					<title>Sheet.33</title>
					<path d="M8.24 186.21 L16.48 186.21 A129.992 129.992 -180 0 0 24.72 194.45 L24.72 202.69 L16.48 210.93 L8.24
								 210.93 L0 202.69 L0 194.45 L8.24 186.21 Z" class="st6"/>
				</g>
			</g>
		</g>
		<g id="group1-31" transform="translate(31.8063,-44.2415)" v:mID="1" v:groupContext="group">
			<title>Sheet.1</title>
			<g id="shape2-32" v:mID="2" v:groupContext="shape" transform="translate(211.741,55.2282) rotate(45)">
				<title>Sheet.2</title>
				<rect x="0" y="198.95" width="9.26447" height="11.9777" class="st7"/>
			</g>
			<g id="shape3-34" v:mID="3" v:groupContext="shape" transform="translate(177.702,11.4484) rotate(30)">
				<title>Sheet.3</title>
				<rect x="0" y="198.95" width="9.26447" height="11.9777" class="st7"/>
			</g>
			<g id="shape4-36" v:mID="4" v:groupContext="shape" transform="translate(134.616,-21.7679) rotate(15)">
				<title>Sheet.4</title>
				<rect x="0" y="198.95" width="9.26447" height="11.9777" class="st7"/>
			</g>
			<g id="shape5-38" v:mID="5" v:groupContext="shape" transform="translate(138.868,-36.3616) rotate(15)">
				<title>Sheet.5</title>
				<rect x="0" y="198.95" width="9.26447" height="11.9777" class="st7"/>
			</g>
			<g id="shape6-40" v:mID="6" v:groupContext="shape" transform="translate(124.868,-55.0068) rotate(10)">
				<title>Sheet.6</title>
				<rect x="0" y="198.95" width="9.26447" height="11.9777" class="st7"/>
			</g>
			<g id="shape7-42" v:mID="7" v:groupContext="shape" transform="translate(90.6023,-71.3862)">
				<title>Sheet.7</title>
				<rect x="0" y="198.95" width="9.26447" height="11.9777" class="st7"/>
			</g>
			<g id="group8-44" transform="translate(11.7283,-55.7456) rotate(-20)" v:mID="8" v:groupContext="group">
				<title>Sheet.8</title>
				<g id="shape9-45" v:mID="9" v:groupContext="shape" transform="translate(-157.567,222.829) rotate(-100)">
					<title>Sheet.9</title>
					<rect x="0" y="161.632" width="9.26447" height="49.2956" class="st7"/>
				</g>
				<g id="shape10-47" v:mID="10" v:groupContext="shape" transform="translate(-27.6094,7.18717) rotate(-15)">
					<title>Sheet.10</title>
					<rect x="0" y="161.632" width="9.26447" height="49.2956" class="st7"/>
				</g>
			</g>
			<g id="group11-49" transform="translate(-33.2185,-72.4303) rotate(-20)" v:mID="11" v:groupContext="group">
				<title>Sheet.11</title>
				<g id="shape12-50" v:mID="12" v:groupContext="shape" transform="translate(-175.544,231.691) rotate(-100)">
					<title>Sheet.12</title>
					<rect x="0" y="179.3" width="5.94391" height="31.6271" class="st7"/>
				</g>
				<g id="shape13-52" v:mID="13" v:groupContext="shape" transform="translate(-37.2804,7.18717) rotate(-15)">
					<title>Sheet.13</title>
					<rect x="0" y="179.3" width="5.94391" height="31.6271" class="st7"/>
				</g>
			</g>
			<g id="group14-54" transform="translate(50.6437,-16.4805) rotate(-20)" v:mID="14" v:groupContext="group">
				<title>Sheet.14</title>
				<g id="shape15-55" v:mID="15" v:groupContext="shape" transform="translate(-168.604,228.27) rotate(-100)">
					<title>Sheet.15</title>
					<rect x="0" y="172.479" width="7.22577" height="38.4478" class="st7"/>
				</g>
				<g id="shape16-57" v:mID="16" v:groupContext="shape" transform="translate(-33.5471,7.18717) rotate(-15)">
					<title>Sheet.16</title>
					<rect x="0" y="172.479" width="7.22577" height="38.4478" class="st7"/>
				</g>
			</g>
			<g id="group17-59" transform="translate(-59.3125,22.9235) rotate(-20)" v:mID="17" v:groupContext="group">
				<title>Sheet.17</title>
				<g id="shape18-60" v:mID="18" v:groupContext="shape" transform="translate(-133.331,210.881) rotate(-100)">
					<title>Sheet.18</title>
					<rect x="0" y="137.81" width="13.7414" height="73.1168" class="st7"/>
				</g>
				<g id="shape19-62" v:mID="19" v:groupContext="shape" transform="translate(-14.5705,7.18717) rotate(-15)">
					<title>Sheet.19</title>
					<rect x="0" y="137.81" width="13.7414" height="73.1168" class="st7"/>
				</g>
			</g>
		</g>
	</g>
</svg>
