<?xml version="1.0" encoding="UTF-8" standalone="no"?>
<!DOCTYPE svg PUBLIC "-//W3C//DTD SVG 1.1//EN" "http://www.w3.org/Graphics/SVG/1.1/DTD/svg11.dtd">
<!-- Generated by Microsoft Visio, SVG Export logo.svg Page-3 -->
<svg xmlns="http://www.w3.org/2000/svg" xmlns:xlink="http://www.w3.org/1999/xlink" xmlns:ev="http://www.w3.org/2001/xml-events"
		xmlns:v="http://schemas.microsoft.com/visio/2003/SVGExtensions/" width="3.3409in" height="3.17225in"
		viewBox="0 0 240.545 228.402" xml:space="preserve" color-interpolation-filters="sRGB" class="st8">
	<v:documentProperties v:langID="18441" v:metric="true" v:viewMarkup="false">
		<v:userDefs>
			<v:ud v:nameU="msvNoAutoConnect" v:val="VT0(1):26"/>
		</v:userDefs>
	</v:documentProperties>

	<style type="text/css">
	<![CDATA[
		.st1 {fill:url(#grad0-5);stroke:#000000;stroke-linecap:round;stroke-linejoin:round;stroke-width:0.75}
		.st2 {fill:url(#grad0-29);stroke:#262626;stroke-linecap:round;stroke-linejoin:round;stroke-width:4.5}
		.st3 {fill:none;stroke:#262626;stroke-linecap:round;stroke-linejoin:round;stroke-width:4.5}
		.st4 {fill:#262626;stroke:#262626;stroke-linecap:round;stroke-linejoin:round;stroke-width:2.25}
		.st5 {fill:#d8d8d8;stroke:#262626;stroke-linecap:round;stroke-linejoin:round;stroke-width:3}
		.st6 {fill:#262626;stroke:#262626;stroke-linecap:round;stroke-linejoin:round;stroke-width:0.75}
		.st7 {fill:#ffffff;stroke:#262626;stroke-linecap:round;stroke-linejoin:round;stroke-width:0.75}
		.st8 {fill:none;fill-rule:evenodd;font-size:12px;overflow:visible;stroke-linecap:square;stroke-miterlimit:3}
	]]>
	</style>

	<defs id="Patterns_And_Gradients">
		<linearGradient id="grad0-5" x1="0" y1="0" x2="1" y2="0" gradientTransform="rotate(70 0.5 0.5)">
			<stop offset="0" stop-color="#fbf6f5" stop-opacity="1"/>
			<stop offset="1" stop-color="#d8d8d8" stop-opacity="1"/>
		</linearGradient>
		<linearGradient id="grad0-29" x1="0" y1="0" x2="1" y2="0" gradientTransform="rotate(90 0.5 0.5)">
			<stop offset="0" stop-color="#f2f2f2" stop-opacity="1"/>
			<stop offset="1" stop-color="#bfbfbf" stop-opacity="1"/>
		</linearGradient>
	</defs>
	<g v:mID="5" v:index="3" v:groupContext="foregroundPage">
		<title>Page-3</title>
		<v:pageProperties v:drawingScale="0.0393701" v:pageScale="0.0393701" v:drawingUnits="24" v:shadowOffsetX="9"
				v:shadowOffsetY="-9"/>
		<g id="group96-1" transform="translate(33.8009,37.3043) rotate(-40)" v:mID="96" v:groupContext="group">
			<title>Sheet.96</title>
			<g id="shape85-2" v:mID="85" v:groupContext="shape" transform="translate(23.3178,-5.32347)">
				<title>Sheet.85</title>
				<path d="M0 221.58 L0.22 221.58 L17.34 221.58 L20.62 228.4 L3.28 228.4 L0.06 221.69 L0 221.58 Z" class="st1"/>
			</g>
			<g id="shape92-6" v:mID="92" v:groupContext="shape" transform="translate(12.6882,2.84217E-14)">
				<title>Sheet.92</title>
				<path d="M3.27 228.4 L13.92 228.4 L16.59 210.57 L0 210.57 L3.27 228.4 Z" class="st1"/>
			</g>
			<g id="shape93-9" v:mID="93" v:groupContext="shape" transform="translate(0,-5.32347)">
				<title>Sheet.93</title>
				<path d="M0 221.58 L0.26 221.58 L20.29 221.58 L24.13 228.4 L3.84 228.4 L0.07 221.69 L0 221.58 Z" class="st1"/>
			</g>
			<g id="shape88-12" v:mID="88" v:groupContext="shape" transform="translate(-194.407,211.956) rotate(-90)">
				<title>Sheet.88</title>
				<ellipse cx="4.57137" cy="215.392" rx="4.57137" ry="13.0105" class="st1"/>
			</g>
			<g id="shape89-15" v:mID="89" v:groupContext="shape" transform="translate(-194.407,210.928) rotate(-90)">
				<title>Sheet.89</title>
				<ellipse cx="4.57137" cy="215.392" rx="4.57137" ry="13.0105" class="st1"/>
			</g>
			<g id="shape90-18" v:mID="90" v:groupContext="shape" transform="translate(17.9049,-19.9987)">
				<title>Sheet.90</title>
				<path d="M1.54 216.13 L0 228.4 L6.16 228.4 L4.62 216.13 L1.54 216.13 Z" class="st1"/>
			</g>
			<g id="shape91-21" v:mID="91" v:groupContext="shape" transform="translate(19.0135,-30.7368)">
				<title>Sheet.91</title>
				<ellipse cx="1.97083" cy="226.469" rx="1.97083" ry="1.93286" class="st1"/>
			</g>
		</g>
		<g id="group1-24" transform="translate(40.4249,-20.25)" v:mID="1" v:groupContext="group">
			<title>Sheet.1</title>
			<g id="group2-25" v:mID="2" v:groupContext="group">
				<title>Sheet.2</title>
				<g id="shape3-26" v:mID="3" v:groupContext="shape" transform="translate(8.04534E-05,-8.77673E-05)">
					<title>Sheet.3</title>
					<ellipse cx="85.2136" cy="143.189" rx="85.2136" ry="85.2136" class="st2"/>
				</g>
				<g id="shape4-30" v:mID="4" v:groupContext="shape" transform="translate(228.402,103.422) rotate(90)">
					<title>Sheet.4</title>
					<ellipse cx="39.7663" cy="143.189" rx="39.7663" ry="85.2136" class="st3"/>
				</g>
				<g id="shape5-32" v:mID="5" v:groupContext="shape" transform="translate(45.4472,8.81073E-13)">
					<title>Sheet.5</title>
					<ellipse cx="39.7663" cy="143.189" rx="39.7663" ry="85.2136" class="st3"/>
				</g>
			</g>
			<g id="group6-34" transform="translate(10.7623,-27.3789)" v:mID="6" v:groupContext="group">
				<title>Sheet.6</title>
				<g id="shape7-35" v:mID="7" v:groupContext="shape" transform="translate(3.19744E-14,-33.7669)">
					<title>Sheet.7</title>
					<path d="M34.13 158.2 L36.08 146.5 L47.78 146.5 L49.73 158.2 L57.53 162.41 A38.4328 38.4328 -180 0 0 67.76 155.76
								 L75.56 163.56 L68.56 173.44 L70.2 180.63 A78.3532 78.3532 -180 0 0 81.9 182.58 L81.9 194.28 L70.2
								 196.23 L67.28 203.05 L75.08 212.8 L66.3 221.58 A57.6001 57.6001 -180 0 0 56.25 214.08 L49.73 216.7
								 L47.78 228.4 L36.08 228.4 L34.13 216.7 L24.99 213.11 L15.6 219.93 L7.8 212.13 L13.96 202.08 L11.7
								 196.23 L0 194.28 L0 182.58 L11.7 180.63 L13.96 172.83 L6.83 163.74 L15.6 154.97 L24.99 161.79 L34.13
								 158.2 Z" class="st4"/>
				</g>
				<g id="shape8-37" v:mID="8" v:groupContext="shape" transform="translate(1.95006,-31.8168)">
					<title>Sheet.8</title>
					<path d="M34.13 158.2 L36.08 146.5 L47.78 146.5 L49.73 158.2 L57.53 162.41 A38.4328 38.4328 -180 0 0 67.76 155.76
								 L75.56 163.56 L68.56 173.44 L70.2 180.63 A78.3532 78.3532 -180 0 0 81.9 182.58 L81.9 194.28 L70.2
								 196.23 L67.28 203.05 L75.08 212.8 L66.3 221.58 A57.6001 57.6001 -180 0 0 56.25 214.08 L49.73 216.7
								 L47.78 228.4 L36.08 228.4 L34.13 216.7 L24.99 213.11 L15.6 219.93 L7.8 212.13 L13.96 202.08 L11.7
								 196.23 L0 194.28 L0 182.58 L11.7 180.63 L13.96 172.83 L6.83 163.74 L15.6 154.97 L24.99 161.79 L34.13
								 158.2 Z" class="st5"/>
				</g>
				<g id="shape9-39" v:mID="9" v:groupContext="shape" transform="translate(29.2509,-61.0677)">
					<title>Sheet.9</title>
					<path d="M9.1 201.1 L18.2 201.1 A143.568 143.568 -180 0 0 27.3 210.2 L27.3 219.3 L18.2 228.4 L9.1 228.4 L0 219.3
								 L0 210.2 L9.1 201.1 Z" class="st6"/>
				</g>
				<g id="shape10-41" v:mID="10" v:groupContext="shape" transform="translate(31.201,-61.0677)">
					<title>Sheet.10</title>
					<path d="M9.1 201.1 L18.2 201.1 A143.568 143.568 -180 0 0 27.3 210.2 L27.3 219.3 L18.2 228.4 L9.1 228.4 L0 219.3
								 L0 210.2 L9.1 201.1 Z" class="st7"/>
				</g>
				<g id="shape11-43" v:mID="11" v:groupContext="shape" transform="translate(39.5302,7.70988) rotate(-10)">
					<title>Sheet.11</title>
					<path d="M30.9 164.84 L32.66 154.24 L43.26 154.24 L45.02 164.84 L52.09 168.65 A34.7985 34.7985 -180 0 0 61.36
								 162.63 L68.42 169.69 L62.08 178.63 L63.56 185.14 A70.944 70.944 -180 0 0 74.16 186.91 L74.16 197.5
								 L63.56 199.27 L60.92 205.45 L67.98 214.28 L60.03 222.22 A52.1533 52.1533 -180 0 0 50.93 215.44 L45.02
								 217.81 L43.26 228.4 L32.66 228.4 L30.9 217.81 L22.62 214.55 L14.13 220.73 L7.06 213.67 L12.64 204.57
								 L10.59 199.27 L0 197.5 L0 186.91 L10.59 185.14 L12.64 178.08 L6.18 169.86 L14.13 161.91 L22.62 168.09
								 L30.9 164.84 Z" class="st4"/>
				</g>
				<g id="shape12-45" v:mID="12" v:groupContext="shape" transform="translate(41.5756,9.14211) rotate(-10)">
					<title>Sheet.12</title>
					<path d="M30.9 164.84 L32.66 154.24 L43.26 154.24 L45.02 164.84 L52.09 168.65 A34.7985 34.7985 -180 0 0 61.36
								 162.63 L68.42 169.69 L62.08 178.63 L63.56 185.14 A70.944 70.944 -180 0 0 74.16 186.91 L74.16 197.5
								 L63.56 199.27 L60.92 205.45 L67.98 214.28 L60.03 222.22 A52.1533 52.1533 -180 0 0 50.93 215.44 L45.02
								 217.81 L43.26 228.4 L32.66 228.4 L30.9 217.81 L22.62 214.55 L14.13 220.73 L7.06 213.67 L12.64 204.57
								 L10.59 199.27 L0 197.5 L0 186.91 L10.59 185.14 L12.64 178.08 L6.18 169.86 L14.13 161.91 L22.62 168.09
								 L30.9 164.84 Z" class="st5"/>
				</g>
				<g id="shape13-47" v:mID="13" v:groupContext="shape" transform="translate(61.3203,-21.2329) rotate(-10)">
					<title>Sheet.13</title>
					<path d="M8.24 203.68 L16.48 203.68 A129.992 129.992 -180 0 0 24.72 211.92 L24.72 220.16 L16.48 228.4 L8.24 228.4
								 L0 220.16 L0 211.92 L8.24 203.68 Z" class="st6"/>
				</g>
				<g id="shape14-49" v:mID="14" v:groupContext="shape" transform="translate(63.0591,-21.5395) rotate(-10)">
					<title>Sheet.14</title>
					<path d="M8.24 203.68 L16.48 203.68 A129.992 129.992 -180 0 0 24.72 211.92 L24.72 220.16 L16.48 228.4 L8.24 228.4
								 L0 220.16 L0 211.92 L8.24 203.68 Z" class="st7"/>
				</g>
			</g>
		</g>
		<g id="shape76-51" v:mID="76" v:groupContext="shape" transform="translate(319.114,-111.317) rotate(30)">
			<title>Sheet.76</title>
			<path d="M3.6 217.27 L7.2 216.1 L9.36 219.61 L11.52 219.61 L13.16 222.28 L11.1 225.64 L7.92 228.4 L3.6 226.06 L3.6 225.33
						 L0 221.37 L1.69 218.62 L3.34 215.94 L3.6 217.27 Z" class="st1"/>
		</g>
		<g id="shape79-54" v:mID="79" v:groupContext="shape" transform="translate(29.8465,-52.1997)">
			<title>Sheet.79</title>
			<path d="M1.94 224.72 L3.88 224.33 L5.04 225.49 L6.2 225.49 L7.09 226.38 L5.98 227.49 L4.27 228.4 L1.94 227.63 L1.94
						 227.38 L0 226.08 L0.91 225.17 L1.8 224.28 L1.94 224.72 Z" class="st1"/>
		</g>
		<g id="shape80-57" v:mID="80" v:groupContext="shape" transform="translate(322.774,141.866) rotate(120)">
			<title>Sheet.80</title>
			<path d="M5.43 218.09 L10.86 217 L14.11 220.26 L17.37 220.26 L19.84 222.73 L16.73 225.84 L11.94 228.4 L5.43 226.23 L5.43
						 225.55 L0 221.89 L2.55 219.34 L5.03 216.86 L5.43 218.09 Z" class="st1"/>
		</g>
		<g id="shape81-60" v:mID="81" v:groupContext="shape" transform="translate(132.201,-96.2961) rotate(30)">
			<title>Sheet.81</title>
			<path d="M2.18 222.43 L4.35 221.8 L5.66 223.69 L6.96 223.69 L7.95 225.12 L6.7 226.92 L4.79 228.4 L2.18 227.15 L2.18 226.75
						 L0 224.63 L1.02 223.15 L2.02 221.72 L2.18 222.43 Z" class="st1"/>
		</g>
		<g id="shape82-63" v:mID="82" v:groupContext="shape" transform="translate(205.595,-59.7243)">
			<title>Sheet.82</title>
			<path d="M1.94 224.72 L3.88 224.33 L5.04 225.49 L6.2 225.49 L7.09 226.38 L5.98 227.49 L4.27 228.4 L1.94 227.63 L1.94
						 227.38 L0 226.08 L0.91 225.17 L1.8 224.28 L1.94 224.72 Z" class="st1"/>
		</g>
		<g id="shape83-66" v:mID="83" v:groupContext="shape" transform="translate(25.5945,-97.992)">
			<title>Sheet.83</title>
			<path d="M1.94 224.72 L3.88 224.33 L5.04 225.49 L6.2 225.49 L7.09 226.38 L5.98 227.49 L4.27 228.4 L1.94 227.63 L1.94
						 227.38 L0 226.08 L0.91 225.17 L1.8 224.28 L1.94 224.72 Z" class="st1"/>
		</g>
		<g id="shape94-69" v:mID="94" v:groupContext="shape" transform="translate(195.725,-21.0799) rotate(30)">
			<title>Sheet.94</title>
			<path d="M3.6 217.27 L7.2 216.1 L9.36 219.61 L11.52 219.61 L13.16 222.28 L11.1 225.64 L7.92 228.4 L3.6 226.06 L3.6 225.33
						 L0 221.37 L1.69 218.62 L3.34 215.94 L3.6 217.27 Z" class="st1"/>
		</g>
		<g id="shape95-72" v:mID="95" v:groupContext="shape" transform="translate(268.205,-111.317) rotate(30)">
			<title>Sheet.95</title>
			<path d="M3.6 217.27 L7.2 216.1 L9.36 219.61 L11.52 219.61 L13.16 222.28 L11.1 225.64 L7.92 228.4 L3.6 226.06 L3.6 225.33
						 L0 221.37 L1.69 218.62 L3.34 215.94 L3.6 217.27 Z" class="st1"/>
		</g>
		<g id="group97-75" transform="translate(188.577,224.826) rotate(-40) scale(1,-1)" v:mID="97" v:groupContext="group">
			<title>Sheet.97</title>
			<g id="shape98-76" v:mID="98" v:groupContext="shape" transform="translate(24.8325,-5.66929)">
				<title>Sheet.98</title>
				<path d="M0 221.14 L0.24 221.14 L18.47 221.14 L21.96 228.4 L3.49 228.4 L0.06 221.25 L0 221.14 Z" class="st1"/>
			</g>
			<g id="shape99-79" v:mID="99" v:groupContext="shape" transform="translate(13.5124,2.84217E-14)">
				<title>Sheet.99</title>
				<path d="M3.49 228.4 L14.83 228.4 L17.67 209.42 L0 209.42 L3.49 228.4 Z" class="st1"/>
			</g>
			<g id="shape100-82" v:mID="100" v:groupContext="shape" transform="translate(1.59872E-14,-5.66929)">
				<title>Sheet.100</title>
				<path d="M0 221.14 L0.28 221.14 L21.61 221.14 L25.69 228.4 L4.09 228.4 L0.07 221.25 L0 221.14 Z" class="st1"/>
			</g>
			<g id="shape101-85" v:mID="101" v:groupContext="shape" transform="translate(-192.199,210.888) rotate(-90)">
				<title>Sheet.101</title>
				<ellipse cx="4.86834" cy="214.547" rx="4.86834" ry="13.8557" class="st1"/>
			</g>
			<g id="shape102-88" v:mID="102" v:groupContext="shape" transform="translate(-192.199,209.793) rotate(-90)">
				<title>Sheet.102</title>
				<ellipse cx="4.86834" cy="214.547" rx="4.86834" ry="13.8557" class="st1"/>
			</g>
			<g id="shape103-91" v:mID="103" v:groupContext="shape" transform="translate(19.068,-21.2979)">
				<title>Sheet.103</title>
				<path d="M1.64 215.33 L0 228.4 L6.56 228.4 L4.92 215.33 L1.64 215.33 Z" class="st1"/>
			</g>
			<g id="shape104-94" v:mID="104" v:groupContext="shape" transform="translate(20.2486,-32.7335)">
				<title>Sheet.104</title>
				<ellipse cx="2.09885" cy="226.344" rx="2.09885" ry="2.05842" class="st1"/>
			</g>
		</g>
		<g id="group105-97" transform="translate(42.6202,194.838) rotate(40) scale(1,-1)" v:mID="105" v:groupContext="group">
			<title>Sheet.105</title>
			<g id="shape106-98" v:mID="106" v:groupContext="shape" transform="translate(19.2773,-4.40104)">
				<title>Sheet.106</title>
				<path d="M0 222.76 L0.19 222.76 L14.34 222.76 L17.05 228.4 L2.71 228.4 L0.05 222.85 L0 222.76 Z" class="st1"/>
			</g>
			<g id="shape107-101" v:mID="107" v:groupContext="shape" transform="translate(10.4896,2.84217E-14)">
				<title>Sheet.107</title>
				<path d="M2.71 228.4 L11.51 228.4 L13.72 213.66 L0 213.66 L2.71 228.4 Z" class="st1"/>
			</g>
			<g id="shape108-104" v:mID="108" v:groupContext="shape" transform="translate(5.9952E-15,-4.40104)">
				<title>Sheet.108</title>
				<path d="M0 222.76 L0.22 222.76 L16.78 222.76 L19.95 228.4 L3.17 228.4 L0.05 222.85 L0 222.76 Z" class="st1"/>
			</g>
			<g id="shape109-107" v:mID="109" v:groupContext="shape" transform="translate(-200.298,214.806) rotate(-90)">
				<title>Sheet.109</title>
				<ellipse cx="3.77926" cy="217.646" rx="3.77926" ry="10.7561" class="st1"/>
			</g>
			<g id="shape110-110" v:mID="110" v:groupContext="shape" transform="translate(-200.298,213.956) rotate(-90)">
				<title>Sheet.110</title>
				<ellipse cx="3.77926" cy="217.646" rx="3.77926" ry="10.7561" class="st1"/>
			</g>
			<g id="shape111-113" v:mID="111" v:groupContext="shape" transform="translate(14.8024,-16.5334)">
				<title>Sheet.111</title>
				<path d="M1.27 218.26 L0 228.4 L5.09 228.4 L3.82 218.26 L1.27 218.26 Z" class="st1"/>
			</g>
			<g id="shape112-116" v:mID="112" v:groupContext="shape" transform="translate(15.7189,-25.4109)">
				<title>Sheet.112</title>
				<ellipse cx="1.62933" cy="226.804" rx="1.62933" ry="1.59794" class="st1"/>
			</g>
		</g>
		<g id="group113-119" transform="translate(226.09,56.0586) rotate(50) scale(-1,1)" v:mID="113" v:groupContext="group">
			<title>Sheet.113</title>
			<g id="shape114-120" v:mID="114" v:groupContext="shape" transform="translate(10.3239,-2.35696)">
				<title>Sheet.114</title>
				<path d="M0 225.38 L0.1 225.38 L7.68 225.38 L9.13 228.4 L1.45 228.4 L0.02 225.43 L0 225.38 Z" class="st1"/>
			</g>
			<g id="shape115-123" v:mID="115" v:groupContext="shape" transform="translate(5.61769,2.84217E-14)">
				<title>Sheet.115</title>
				<path d="M1.45 228.4 L6.16 228.4 L7.35 220.51 L0 220.51 L1.45 228.4 Z" class="st1"/>
			</g>
			<g id="shape116-126" v:mID="116" v:groupContext="shape" transform="translate(6.99441E-15,-2.35696)">
				<title>Sheet.116</title>
				<path d="M0 225.38 L0.12 225.38 L8.98 225.38 L10.68 228.4 L1.7 228.4 L0.03 225.43 L0 225.38 Z" class="st1"/>
			</g>
			<g id="shape117-129" v:mID="117" v:groupContext="shape" transform="translate(-213.351,221.121) rotate(-90)">
				<title>Sheet.117</title>
				<ellipse cx="2.02397" cy="222.642" rx="2.02397" ry="5.7604" class="st1"/>
			</g>
			<g id="shape118-132" v:mID="118" v:groupContext="shape" transform="translate(-213.351,220.665) rotate(-90)">
				<title>Sheet.118</title>
				<ellipse cx="2.02397" cy="222.642" rx="2.02397" ry="5.7604" class="st1"/>
			</g>
			<g id="shape119-135" v:mID="119" v:groupContext="shape" transform="translate(7.92738,-8.85441)">
				<title>Sheet.119</title>
				<path d="M0.68 222.97 L0 228.4 L2.73 228.4 L2.05 222.97 L0.68 222.97 Z" class="st1"/>
			</g>
			<g id="shape120-138" v:mID="120" v:groupContext="shape" transform="translate(8.41821,-13.6087)">
				<title>Sheet.120</title>
				<ellipse cx="0.872582" cy="227.547" rx="0.872582" ry="0.855773" class="st1"/>
			</g>
		</g>
	</g>
</svg>
